:SAMPLES-PER-SECOND 30
:FULLY-SPECIFIED
:DEGREES
480
root  -75.9626 33.0089 -48.9548 13.7733 -37.3925 -7.62066
RightUpLeg  -9.67098 -18.3732 -2.24797
RightLeg  31.7168 -4.00112 -2.13765
RightFoot  3.51551 0.00314028 0.355373
RightToes  -59.4247 -0.389124 -0.396709
Spine  7.8247 7.01527 2.40722
Spine1  15.2126 17.2531 0.2447
HEad  41.1722 -8.57703 5.27279
LeftShoulder1  0 -2.42657e-020 -4.95415e-022
LeftArm  -15.1888 21.9264 -88.7745
LeftForeArm  37.446 -47.4454 -11.0829
LeftHand  -0.676131 -5.9826 12.529
RightShoulder  0 2.42657e-020 1.07489e-018
RightArm  -53.2476 20.1414 70.9785
RightForeArm  73.1982 6.16087 1.01761
RightHand  0.514192 21.4342 3.08726
LeftUpLeg  -30.0047 10.0793 -11.4458
LeftLeg  30.0448 2.92729 1.44611
LeftFoot  -7.48665 -0.0104754 -0.160118
LeftToes  9.63761 8.72033e-007 1.17809e-007
481
root  -76.643 32.4667 -47.7378 12.7356 -31.6193 -6.69309
RightUpLeg  -9.1638 -17.5852 -3.34187
RightLeg  38.5574 -4.37879 -3.06493
RightFoot  2.88993 0.00677862 0.29406
RightToes  -62.135 -0.414796 -0.403341
Spine  7.57769 5.53424 2.7604
Spine1  14.7162 13.7926 1.30542
HEad  40.973 -10.4463 5.63634
LeftShoulder1  0 -2.42657e-020 -4.95415e-022
LeftArm  -14.8685 23.5556 -88.2276
LeftForeArm  37.9507 -48.7661 -11.6188
LeftHand  -0.714693 -6.01254 13.1905
RightShoulder  0 2.42657e-020 1.07489e-018
RightArm  -57.2251 16.2526 70.2252
RightForeArm  67.0604 6.48186 1.09054
RightHand  0.13087 21.0172 1.07584
LeftUpLeg  -28.6036 9.37082 -13.478
LeftLeg  31.9451 4.70958 2.52348
LeftFoot  -12.811 -0.118835 -1.0585
LeftToes  23.6667 8.72033e-007 1.17809e-007
482
root  -77.3277 31.7117 -46.5483 11.1943 -26.5663 -5.83498
RightUpLeg  -10.5471 -15.1452 -4.42648
RightLeg  49.6635 -2.86756 -3.00788
RightFoot  2.9845 0.00409915 0.319687
RightToes  -58.7399 -0.382689 -0.394841
Spine  7.645 3.85708 2.83865
Spine1  14.76 9.99917 1.74079
HEad  39.8988 -10.8222 6.32056
LeftShoulder1  0 -2.42657e-020 -4.95415e-022
LeftArm  -14.5577 24.7399 -87.12
LeftForeArm  37.6787 -50.6837 -12.453
LeftHand  -0.719426 -5.74788 13.9035
RightShoulder  0 2.42657e-020 1.07489e-018
RightArm  -56.0612 11.9219 71.5631
RightForeArm  52.6895 10.6879 1.87703
RightHand  0.097428 21.4465 0.884746
LeftUpLeg  -27.3329 4.43311 -13.345
LeftLeg  37.4359 4.6143 3.0725
LeftFoot  -18.5172 -0.282956 -1.73565
LeftToes  22.0221 8.72033e-007 1.17809e-007
483
root  -78.0471 30.9796 -45.3564 9.03311 -22.987 -4.79771
RightUpLeg  -13.2226 -10.6724 -5.37271
RightLeg  62.2627 -0.528358 -0.966196
RightFoot  3.76911 -0.0035381 0.413288
RightToes  -40.2391 -0.220396 -0.316469
Spine  8.04186 2.53533 2.39642
Spine1  15.3963 6.94244 1.3553
HEad  37.5078 -10.931 7.50694
LeftShoulder1  0 -2.42657e-020 -4.95415e-022
LeftArm  -12.9665 24.1729 -84.7605
LeftForeArm  37.0878 -51.174 -12.6783
LeftHand  -0.751046 -5.84931 14.2678
RightShoulder  0 2.42657e-020 1.07489e-018
RightArm  -50.6825 6.12516 73.9842
RightForeArm  33.1718 18.1939 3.31393
RightHand  0.602017 21.2008 3.58698
LeftUpLeg  -26.6656 2.88263 -13.8585
LeftLeg  44.647 3.46983 3.00176
LeftFoot  -23.2292 -0.373838 -1.8187
LeftToes  23.5498 8.72033e-007 1.17809e-007
484
root  -78.6673 30.5401 -44.0596 8.00602 -19.7649 -3.99516
RightUpLeg  -16.3913 -7.05951 -5.8366
RightLeg  70.3493 -0.214621 -0.670993
RightFoot  0.529598 0.00025167 0.322669
RightToes  -36.6808 -0.192526 -0.295615
Spine  7.79125 1.43859 1.90519
Spine1  14.9268 4.19537 1.23459
HEad  36.3475 -10.9489 7.9425
LeftShoulder1  0 -2.42657e-020 -4.95415e-022
LeftArm  -10.1007 22.5029 -82.5284
LeftForeArm  36.4731 -48.5378 -11.5256
LeftHand  -0.702257 -5.84034 13.3471
RightShoulder  0 2.42657e-020 1.07489e-018
RightArm  -46.9879 -0.658286 75.9615
RightForeArm  20.4205 25.8969 4.90677
RightHand  0.256459 19.484 1.86428
LeftUpLeg  -23.9159 1.93128 -14.2265
LeftLeg  46.458 2.09561 1.93116
LeftFoot  -26.7421 -0.314625 -1.32358
LeftToes  23.3057 8.72033e-007 1.17809e-007
485
root  -79.1798 30.4772 -42.7093 7.81976 -16.6644 -3.82411
RightUpLeg  -19.9316 -4.49661 -5.82638
RightLeg  73.4319 -0.995858 -2.91285
RightFoot  -2.01651 -0.00155542 0.289269
RightToes  -31.7575 -0.156208 -0.263993
Spine  7.10006 0.161891 1.67317
Spine1  13.7331 1.0511 1.63136
HEad  36.8653 -9.04266 7.05001
LeftShoulder1  0 -2.42657e-020 -4.95415e-022
LeftArm  -8.64832 21.0554 -81.6379
LeftForeArm  37.1333 -44.7752 -10.0794
LeftHand  -0.703769 -6.65154 11.7083
RightShoulder  0 2.42657e-020 1.07489e-018
RightArm  -47.9147 -6.64644 78.2048
RightForeArm  11.113 33.1139 6.5988
RightHand  0.721232 20.1208 4.435
LeftUpLeg  -20.4856 -1.21307 -14.1432
LeftLeg  45.7314 2.60712 2.34298
LeftFoot  -28.464 -0.434878 -1.71449
LeftToes  23.8711 8.72033e-007 1.17809e-007
486
root  -79.6561 30.8232 -41.2876 8.05193 -14.9177 -4.11023
RightUpLeg  -23.4271 -1.4123 -5.40224
RightLeg  71.4543 -2.50517 -6.28758
RightFoot  -4.02275 0.00631097 0.557345
RightToes  -27.3499 -0.126105 -0.233132
Spine  6.5127 -0.84772 1.59253
Spine1  12.7031 -1.42231 2.11851
HEad  37.5055 -5.08383 5.92338
LeftShoulder1  0 -2.42657e-020 -4.95415e-022
LeftArm  -7.8896 20.2585 -81.5144
LeftForeArm  38.5373 -42.1304 -9.17452
LeftHand  -0.733922 -7.04243 11.5257
RightShoulder  0 2.42657e-020 1.07489e-018
RightArm  -48.4729 -11.9301 80.4036
RightForeArm  7.02338 43.6273 9.67709
RightHand  0.17082 20.144 1.3321
LeftUpLeg  -15.5501 -3.44875 -13.5936
LeftLeg  41.3063 3.47791 2.67156
LeftFoot  -27.975 -0.519088 -2.08368
LeftToes  22.2982 8.72033e-007 1.17809e-007
487
root  -80.1835 31.3537 -39.804 8.70268 -13.7909 -5.1482
RightUpLeg  -26.1327 1.56453 -4.17761
RightLeg  65.1686 -4.94015 -9.12105
RightFoot  -6.21 0.0438315 1.18569
RightToes  -24.4345 -0.107533 -0.211485
Spine  6.21895 -1.63278 2.03979
Spine1  12.134 -3.07765 2.86281
HEad  37.8532 0.507568 4.44726
LeftShoulder1  0 -2.42657e-020 -4.95415e-022
LeftArm  -7.71566 20.4582 -81.9565
LeftForeArm  39.2354 -42.3294 -9.23889
LeftHand  -0.764737 -7.07475 11.965
RightShoulder  0 2.42657e-020 1.07489e-018
RightArm  -48.2119 -15.4878 81.1093
RightForeArm  13.8908 55.98 15.1866
RightHand  0.346829 21.5976 2.18884
LeftUpLeg  -10.2453 -4.29265 -12.0339
LeftLeg  35.3758 3.39873 2.09192
LeftFoot  -26.069 -0.413672 -1.78678
LeftToes  20.9156 8.72033e-007 1.17809e-007
488
root  -80.6765 32.0053 -38.3284 10.1695 -12.2481 -6.40256
RightUpLeg  -28.0731 3.5931 -2.68813
RightLeg  54.9138 -8.52415 -10.5108
RightFoot  -7.72395 0.101202 1.87677
RightToes  -21.0392 -0.0873275 -0.185125
Spine  5.6284 -2.73048 2.58077
Spine1  10.9775 -5.29791 3.68381
HEad  38.1646 6.28169 3.05308
LeftShoulder1  0 -2.42657e-020 -4.95415e-022
LeftArm  -8.00038 22.0455 -82.3993
LeftForeArm  38.911 -44.244 -9.88927
LeftHand  -0.752375 -6.90388 12.0662
RightShoulder  0 2.42657e-020 1.07489e-018
RightArm  -43.1856 -18.2323 79.6186
RightForeArm  20.6334 66.5328 24.0956
RightHand  0.565637 22.6311 3.19708
LeftUpLeg  -6.06218 -5.10866 -10.0153
LeftLeg  29.6257 3.10112 1.50402
LeftFoot  -21.9426 -0.256941 -1.32534
LeftToes  18.7964 8.72033e-007 1.17809e-007
489
root  -81.1389 32.6854 -36.8207 12.0566 -10.4233 -7.59302
RightUpLeg  -28.7343 4.95847 -1.08703
RightLeg  40.7788 -12.4465 -9.27211
RightFoot  -7.0738 0.0970505 1.94781
RightToes  -20.5761 -0.0846936 -0.181438
Spine  4.95673 -3.69035 3.13293
Spine1  9.64463 -7.24139 4.60652
HEad  38.1166 10.5067 2.40461
LeftShoulder1  0 -2.42657e-020 -4.95415e-022
LeftArm  -6.99246 23.2185 -82.6505
LeftForeArm  39.0964 -45.7158 -10.4193
LeftHand  -0.759356 -6.65313 12.6514
RightShoulder  0 2.42657e-020 1.07489e-018
RightArm  -36.3836 -21.612 77.2773
RightForeArm  44.4615 76.0859 45.865
RightHand  -0.684302 21.2777 -3.27264
LeftUpLeg  -3.69908 -4.1808 -7.70947
LeftLeg  25.8669 1.81259 0.735859
LeftFoot  -16.0499 -0.0805469 -0.571321
LeftToes  14.6261 8.72033e-007 1.17809e-007
